<mxfile host="app.diagrams.net" agent="Mozilla/5.0 (Windows NT 10.0; Win64; x64) AppleWebKit/537.36 (KHTML, like Gecko) Chrome/131.0.0.0 Safari/537.36" version="25.0.3">
  <diagram name="PÃ¡gina-1" id="pA4HhVp_2TpJnKFQZl5D">
    <mxGraphModel dx="1244" dy="1651" grid="1" gridSize="10" guides="1" tooltips="1" connect="1" arrows="1" fold="1" page="1" pageScale="1" pageWidth="827" pageHeight="1169" math="0" shadow="0">
      <root>
        <mxCell id="0" />
        <mxCell id="1" parent="0" />
        <mxCell id="S_7H6B9EacM-xH_ue1mA-12" style="edgeStyle=orthogonalEdgeStyle;rounded=0;orthogonalLoop=1;jettySize=auto;html=1;exitX=0.5;exitY=0;exitDx=0;exitDy=0;entryX=0.25;entryY=1;entryDx=0;entryDy=0;" edge="1" parent="1" source="fuBItaNrCO8hyKp-1U8D-1" target="fuBItaNrCO8hyKp-1U8D-5">
          <mxGeometry relative="1" as="geometry" />
        </mxCell>
        <mxCell id="fuBItaNrCO8hyKp-1U8D-1" value="&lt;font style=&quot;vertical-align: inherit;&quot;&gt;&lt;font style=&quot;vertical-align: inherit;&quot;&gt;&lt;font style=&quot;vertical-align: inherit;&quot;&gt;&lt;font style=&quot;vertical-align: inherit;&quot;&gt;Tablero&lt;/font&gt;&lt;/font&gt;&lt;/font&gt;&lt;/font&gt;" style="swimlane;fontStyle=1;align=center;verticalAlign=top;childLayout=stackLayout;horizontal=1;startSize=26;horizontalStack=0;resizeParent=1;resizeParentMax=0;resizeLast=0;collapsible=1;marginBottom=0;whiteSpace=wrap;html=1;fillColor=#D4E1F5;" parent="1" vertex="1">
          <mxGeometry x="140" y="250" width="190" height="200" as="geometry" />
        </mxCell>
        <mxCell id="fuBItaNrCO8hyKp-1U8D-2" value="&lt;div&gt;&amp;nbsp;-static final int FILAS = 10&lt;/div&gt;&lt;div&gt;&amp;nbsp;-static final int COLUMNAS = 10&lt;/div&gt;&lt;div&gt;&amp;nbsp;-static final int MINAS = 10&lt;/div&gt;&lt;div&gt;&amp;nbsp;-Casilla[][] tablero&lt;/div&gt;" style="text;strokeColor=none;fillColor=none;align=left;verticalAlign=top;spacingLeft=4;spacingRight=4;overflow=hidden;rotatable=0;points=[[0,0.5],[1,0.5]];portConstraint=eastwest;whiteSpace=wrap;html=1;" parent="fuBItaNrCO8hyKp-1U8D-1" vertex="1">
          <mxGeometry y="26" width="190" height="64" as="geometry" />
        </mxCell>
        <mxCell id="fuBItaNrCO8hyKp-1U8D-3" value="" style="line;strokeWidth=1;fillColor=none;align=left;verticalAlign=middle;spacingTop=-1;spacingLeft=3;spacingRight=3;rotatable=0;labelPosition=right;points=[];portConstraint=eastwest;strokeColor=inherit;" parent="fuBItaNrCO8hyKp-1U8D-1" vertex="1">
          <mxGeometry y="90" width="190" height="8" as="geometry" />
        </mxCell>
        <mxCell id="fuBItaNrCO8hyKp-1U8D-4" value="&lt;div&gt;&amp;nbsp;+Tablero()&lt;/div&gt;&lt;div&gt;&amp;nbsp;+void inicializarTablero()&lt;/div&gt;&lt;div&gt;&amp;nbsp;+void colocarMinas()&lt;/div&gt;&lt;div&gt;&amp;nbsp;+void calcularConteoMinas()&amp;nbsp;&lt;/div&gt;&lt;div&gt;&amp;nbsp;+Casilla[][] getTablero()&lt;/div&gt;&lt;div&gt;&amp;nbsp;+boolean verificarVictoria()&lt;/div&gt;&lt;div&gt;&lt;br&gt;&lt;/div&gt;" style="text;strokeColor=none;fillColor=none;align=left;verticalAlign=top;spacingLeft=4;spacingRight=4;overflow=hidden;rotatable=0;points=[[0,0.5],[1,0.5]];portConstraint=eastwest;whiteSpace=wrap;html=1;" parent="fuBItaNrCO8hyKp-1U8D-1" vertex="1">
          <mxGeometry y="98" width="190" height="102" as="geometry" />
        </mxCell>
        <mxCell id="fuBItaNrCO8hyKp-1U8D-5" value="&lt;p style=&quot;margin:0px;margin-top:4px;text-align:center;&quot;&gt;&lt;b&gt;&lt;font style=&quot;vertical-align: inherit;&quot;&gt;&lt;font style=&quot;vertical-align: inherit;&quot;&gt;&lt;font style=&quot;vertical-align: inherit;&quot;&gt;&lt;font style=&quot;vertical-align: inherit;&quot;&gt;&lt;font style=&quot;vertical-align: inherit;&quot;&gt;&lt;font style=&quot;vertical-align: inherit; font-size: 12px;&quot;&gt;BuscaminaModel&lt;/font&gt;&lt;/font&gt;&lt;/font&gt;&lt;/font&gt;&lt;/font&gt;&lt;/font&gt;&lt;/b&gt;&lt;/p&gt;&lt;hr size=&quot;1&quot; style=&quot;border-style:solid;&quot;&gt;&lt;p class=&quot;MsoNormal&quot;&gt;&lt;/p&gt;&lt;div style=&quot;text-align: justify;&quot;&gt;&lt;span style=&quot;background-color: initial;&quot;&gt;&amp;nbsp;-Tablero tablero&lt;/span&gt;&lt;/div&gt;&lt;span style=&quot;background-color: initial;&quot;&gt;&lt;div style=&quot;text-align: justify;&quot;&gt;&lt;span style=&quot;background-color: initial;&quot;&gt;&amp;nbsp;-Jugador jugador&lt;/span&gt;&lt;/div&gt;&lt;/span&gt;&lt;p&gt;&lt;/p&gt;&lt;hr size=&quot;1&quot; style=&quot;border-style:solid;&quot;&gt;&lt;p class=&quot;MsoNormal&quot;&gt;&amp;nbsp;+&lt;span style=&quot;background-color: initial;&quot;&gt;BuscaminasModel(Jugador jugador)&lt;/span&gt;&lt;/p&gt;&lt;p class=&quot;MsoNormal&quot;&gt;&amp;nbsp;+Tablero getTablero()&lt;/p&gt;&lt;p class=&quot;MsoNormal&quot;&gt;&amp;nbsp;+Jugador getJugador()&lt;/p&gt;&lt;p class=&quot;MsoNormal&quot;&gt;&amp;nbsp;+boolean verificarVictoria()&lt;/p&gt;&lt;div&gt;&lt;br&gt;&lt;/div&gt;" style="verticalAlign=top;align=left;overflow=fill;html=1;whiteSpace=wrap;fillColor=#D5E8D4;" parent="1" vertex="1">
          <mxGeometry x="260" y="-60" width="210" height="200" as="geometry" />
        </mxCell>
        <mxCell id="fuBItaNrCO8hyKp-1U8D-6" value="&lt;p style=&quot;margin:0px;margin-top:4px;text-align:center;&quot;&gt;&lt;span style=&quot;line-height: 107%;&quot;&gt;&lt;font style=&quot;vertical-align: inherit;&quot;&gt;&lt;font style=&quot;vertical-align: inherit;&quot;&gt;&lt;font style=&quot;vertical-align: inherit;&quot;&gt;&lt;font style=&quot;vertical-align: inherit;&quot;&gt;&lt;font style=&quot;vertical-align: inherit;&quot;&gt;&lt;font style=&quot;vertical-align: inherit;&quot;&gt;&lt;font style=&quot;vertical-align: inherit;&quot;&gt;&lt;font style=&quot;vertical-align: inherit;&quot;&gt;&lt;font style=&quot;vertical-align: inherit;&quot;&gt;&lt;font style=&quot;vertical-align: inherit;&quot;&gt;&lt;b style=&quot;&quot;&gt;&lt;font style=&quot;vertical-align: inherit;&quot;&gt;&lt;font style=&quot;vertical-align: inherit; font-size: 12px;&quot;&gt;BuscacaminasController&lt;/font&gt;&lt;/font&gt;&lt;/b&gt;&lt;/font&gt;&lt;/font&gt;&lt;/font&gt;&lt;/font&gt;&lt;/font&gt;&lt;/font&gt;&lt;/font&gt;&lt;/font&gt;&lt;/font&gt;&lt;/font&gt;&lt;/span&gt;&lt;/p&gt;&lt;hr size=&quot;1&quot; style=&quot;border-style:solid;&quot;&gt;&lt;p class=&quot;MsoNormal&quot;&gt;&amp;nbsp;-BuscaminasModel modelo&lt;/p&gt;&lt;p class=&quot;MsoNormal&quot;&gt;&amp;nbsp;-BuscaminasView vista&lt;/p&gt;&lt;hr size=&quot;1&quot; style=&quot;border-style:solid;&quot;&gt;&lt;p class=&quot;MsoNormal&quot;&gt;&amp;nbsp;+BuscaminasController(BuscaminasModel modelo, BuscaminasView vista)&lt;/p&gt;&lt;p class=&quot;MsoNormal&quot;&gt;&amp;nbsp;+void inicializarControlador():&lt;/p&gt;&lt;p class=&quot;MsoNormal&quot;&gt;&amp;nbsp;+void manejarAccion(int fila, int columna)&lt;/p&gt;&lt;p class=&quot;MsoNormal&quot;&gt;&amp;nbsp;+void descubrirCasilla(int fila, int columna)&lt;/p&gt;&lt;p class=&quot;MsoNormal&quot;&gt;&amp;nbsp;+void mostrarTableroCompleto()&lt;/p&gt;&lt;div&gt;&lt;br&gt;&lt;/div&gt;" style="verticalAlign=top;align=left;overflow=fill;html=1;whiteSpace=wrap;fillColor=#D5E8D4;" parent="1" vertex="1">
          <mxGeometry x="650" y="-80" width="240" height="250" as="geometry" />
        </mxCell>
        <mxCell id="S_7H6B9EacM-xH_ue1mA-8" style="edgeStyle=orthogonalEdgeStyle;rounded=0;orthogonalLoop=1;jettySize=auto;html=1;" edge="1" parent="1" source="fuBItaNrCO8hyKp-1U8D-7">
          <mxGeometry relative="1" as="geometry">
            <mxPoint x="900" y="55" as="targetPoint" />
          </mxGeometry>
        </mxCell>
        <mxCell id="fuBItaNrCO8hyKp-1U8D-7" value="&lt;p style=&quot;margin:0px;margin-top:4px;text-align:center;&quot;&gt;&lt;b&gt;BuscaminaView&lt;/b&gt;&lt;/p&gt;&lt;hr size=&quot;1&quot; style=&quot;border-style:solid;&quot;&gt;&lt;p class=&quot;MsoNormal&quot;&gt;&amp;nbsp;-JFrame frame&lt;/p&gt;&lt;p class=&quot;MsoNormal&quot;&gt;&amp;nbsp;-JButton[][] botones&lt;/p&gt;&lt;p class=&quot;MsoNormal&quot;&gt;&amp;nbsp;-JTextArea textArea&lt;/p&gt;&lt;p class=&quot;MsoNormal&quot;&gt;&amp;nbsp;-static final int FILAS = 10&lt;/p&gt;&lt;p class=&quot;MsoNormal&quot;&gt;&amp;nbsp;-static final int COLUMNAS = 10&lt;/p&gt;&lt;hr size=&quot;1&quot; style=&quot;border-style:solid;&quot;&gt;&lt;p class=&quot;MsoNormal&quot;&gt;&lt;font style=&quot;vertical-align: inherit;&quot;&gt;&lt;font style=&quot;vertical-align: inherit;&quot;&gt;&lt;font style=&quot;vertical-align: inherit;&quot;&gt;&lt;font style=&quot;vertical-align: inherit;&quot;&gt;&amp;nbsp;+&lt;/font&gt;&lt;/font&gt;&lt;/font&gt;&lt;/font&gt;&lt;span style=&quot;background-color: initial;&quot;&gt;BuscaminasView()&lt;/span&gt;&lt;/p&gt;&lt;p class=&quot;MsoNormal&quot;&gt;&amp;nbsp;+void setButtonActionListener(int fila, int columna, ActionListener listener)&lt;/p&gt;&lt;p class=&quot;MsoNormal&quot;&gt;&amp;nbsp;+void actualizarBoton(int fila, int columna, String texto, Color color)&lt;/p&gt;&lt;p class=&quot;MsoNormal&quot;&gt;&amp;nbsp;+void mostrarMensaje(String mensaje)&lt;/p&gt;&lt;p class=&quot;MsoNormal&quot;&gt;&amp;nbsp;+JButton[][] getBotones()&lt;/p&gt;&lt;div&gt;&lt;br&gt;&lt;/div&gt;" style="verticalAlign=top;align=left;overflow=fill;html=1;whiteSpace=wrap;fillColor=#D5E8D4;" parent="1" vertex="1">
          <mxGeometry x="1050" y="-120" width="320" height="350" as="geometry" />
        </mxCell>
        <mxCell id="S_7H6B9EacM-xH_ue1mA-1" value="&lt;font style=&quot;vertical-align: inherit;&quot;&gt;&lt;font style=&quot;vertical-align: inherit;&quot;&gt;Main&lt;/font&gt;&lt;/font&gt;" style="swimlane;fontStyle=0;childLayout=stackLayout;horizontal=1;startSize=26;fillColor=#9AC7BF;horizontalStack=0;resizeParent=1;resizeParentMax=0;resizeLast=0;collapsible=1;marginBottom=0;whiteSpace=wrap;html=1;" vertex="1" parent="1">
          <mxGeometry x="690" y="-300" width="160" height="60" as="geometry" />
        </mxCell>
        <mxCell id="S_7H6B9EacM-xH_ue1mA-3" value="&lt;font style=&quot;vertical-align: inherit;&quot;&gt;&lt;font style=&quot;vertical-align: inherit;&quot;&gt;&lt;font style=&quot;vertical-align: inherit;&quot;&gt;&lt;font style=&quot;vertical-align: inherit;&quot;&gt;+ main(args: String[]): void &lt;/font&gt;&lt;/font&gt;&lt;/font&gt;&lt;/font&gt;" style="text;strokeColor=none;fillColor=none;align=left;verticalAlign=top;spacingLeft=4;spacingRight=4;overflow=hidden;rotatable=0;points=[[0,0.5],[1,0.5]];portConstraint=eastwest;whiteSpace=wrap;html=1;" vertex="1" parent="S_7H6B9EacM-xH_ue1mA-1">
          <mxGeometry y="26" width="160" height="34" as="geometry" />
        </mxCell>
        <mxCell id="S_7H6B9EacM-xH_ue1mA-9" style="edgeStyle=orthogonalEdgeStyle;rounded=0;orthogonalLoop=1;jettySize=auto;html=1;exitX=0.5;exitY=0;exitDx=0;exitDy=0;entryX=0.39;entryY=1.078;entryDx=0;entryDy=0;entryPerimeter=0;" edge="1" parent="1" source="fuBItaNrCO8hyKp-1U8D-6" target="S_7H6B9EacM-xH_ue1mA-3">
          <mxGeometry relative="1" as="geometry">
            <Array as="points">
              <mxPoint x="752" y="-80" />
            </Array>
          </mxGeometry>
        </mxCell>
        <mxCell id="S_7H6B9EacM-xH_ue1mA-10" style="edgeStyle=orthogonalEdgeStyle;rounded=0;orthogonalLoop=1;jettySize=auto;html=1;entryX=0.015;entryY=0.176;entryDx=0;entryDy=0;entryPerimeter=0;" edge="1" parent="1" source="fuBItaNrCO8hyKp-1U8D-5" target="S_7H6B9EacM-xH_ue1mA-3">
          <mxGeometry relative="1" as="geometry" />
        </mxCell>
        <mxCell id="S_7H6B9EacM-xH_ue1mA-11" style="edgeStyle=orthogonalEdgeStyle;rounded=0;orthogonalLoop=1;jettySize=auto;html=1;exitX=0.5;exitY=0;exitDx=0;exitDy=0;entryX=0.981;entryY=0.098;entryDx=0;entryDy=0;entryPerimeter=0;" edge="1" parent="1" source="fuBItaNrCO8hyKp-1U8D-7" target="S_7H6B9EacM-xH_ue1mA-3">
          <mxGeometry relative="1" as="geometry" />
        </mxCell>
        <mxCell id="S_7H6B9EacM-xH_ue1mA-13" value="&lt;font style=&quot;vertical-align: inherit;&quot;&gt;&lt;font style=&quot;vertical-align: inherit;&quot;&gt;&lt;font style=&quot;vertical-align: inherit;&quot;&gt;&lt;font style=&quot;vertical-align: inherit;&quot;&gt;Tablero&lt;/font&gt;&lt;/font&gt;&lt;/font&gt;&lt;/font&gt;" style="swimlane;fontStyle=1;align=center;verticalAlign=top;childLayout=stackLayout;horizontal=1;startSize=26;horizontalStack=0;resizeParent=1;resizeParentMax=0;resizeLast=0;collapsible=1;marginBottom=0;whiteSpace=wrap;html=1;fillColor=#D4E1F5;" vertex="1" parent="1">
          <mxGeometry x="390" y="250" width="190" height="150" as="geometry" />
        </mxCell>
        <mxCell id="S_7H6B9EacM-xH_ue1mA-14" value="&lt;div&gt;&amp;nbsp;-String nombre&lt;/div&gt;&lt;div&gt;&amp;nbsp;-int puntuacion&lt;/div&gt;" style="text;strokeColor=none;fillColor=none;align=left;verticalAlign=top;spacingLeft=4;spacingRight=4;overflow=hidden;rotatable=0;points=[[0,0.5],[1,0.5]];portConstraint=eastwest;whiteSpace=wrap;html=1;" vertex="1" parent="S_7H6B9EacM-xH_ue1mA-13">
          <mxGeometry y="26" width="190" height="44" as="geometry" />
        </mxCell>
        <mxCell id="S_7H6B9EacM-xH_ue1mA-15" value="" style="line;strokeWidth=1;fillColor=none;align=left;verticalAlign=middle;spacingTop=-1;spacingLeft=3;spacingRight=3;rotatable=0;labelPosition=right;points=[];portConstraint=eastwest;strokeColor=inherit;" vertex="1" parent="S_7H6B9EacM-xH_ue1mA-13">
          <mxGeometry y="70" width="190" height="8" as="geometry" />
        </mxCell>
        <mxCell id="S_7H6B9EacM-xH_ue1mA-16" value="&lt;div&gt;&lt;div&gt;&amp;nbsp;+Jugador(String nombre)&lt;/div&gt;&lt;div&gt;&amp;nbsp;+String getNombre()&lt;/div&gt;&lt;div&gt;&amp;nbsp;+int getPuntuacion()&lt;/div&gt;&lt;div&gt;&amp;nbsp;+void incrementarPuntuacion()&lt;/div&gt;&lt;/div&gt;" style="text;strokeColor=none;fillColor=none;align=left;verticalAlign=top;spacingLeft=4;spacingRight=4;overflow=hidden;rotatable=0;points=[[0,0.5],[1,0.5]];portConstraint=eastwest;whiteSpace=wrap;html=1;" vertex="1" parent="S_7H6B9EacM-xH_ue1mA-13">
          <mxGeometry y="78" width="190" height="72" as="geometry" />
        </mxCell>
        <mxCell id="S_7H6B9EacM-xH_ue1mA-22" value="" style="edgeStyle=orthogonalEdgeStyle;rounded=0;orthogonalLoop=1;jettySize=auto;html=1;" edge="1" parent="1" source="S_7H6B9EacM-xH_ue1mA-17" target="fuBItaNrCO8hyKp-1U8D-4">
          <mxGeometry relative="1" as="geometry" />
        </mxCell>
        <mxCell id="S_7H6B9EacM-xH_ue1mA-17" value="&lt;font style=&quot;vertical-align: inherit;&quot;&gt;&lt;font style=&quot;vertical-align: inherit;&quot;&gt;&lt;font style=&quot;vertical-align: inherit;&quot;&gt;&lt;font style=&quot;vertical-align: inherit;&quot;&gt;Casilla&lt;/font&gt;&lt;/font&gt;&lt;/font&gt;&lt;/font&gt;" style="swimlane;fontStyle=1;align=center;verticalAlign=top;childLayout=stackLayout;horizontal=1;startSize=26;horizontalStack=0;resizeParent=1;resizeParentMax=0;resizeLast=0;collapsible=1;marginBottom=0;whiteSpace=wrap;html=1;fillColor=#D4E1F5;" vertex="1" parent="1">
          <mxGeometry x="115" y="540" width="240" height="240" as="geometry" />
        </mxCell>
        <mxCell id="S_7H6B9EacM-xH_ue1mA-18" value="&lt;div&gt;&amp;nbsp;-boolean mina&lt;/div&gt;&lt;div&gt;&amp;nbsp;-int conteoMinas&lt;/div&gt;&lt;div&gt;&amp;nbsp;-boolean descubierto&lt;/div&gt;&lt;div&gt;&amp;nbsp;-boolean marcado&lt;/div&gt;&lt;div&gt;&lt;br&gt;&lt;/div&gt;" style="text;strokeColor=none;fillColor=none;align=left;verticalAlign=top;spacingLeft=4;spacingRight=4;overflow=hidden;rotatable=0;points=[[0,0.5],[1,0.5]];portConstraint=eastwest;whiteSpace=wrap;html=1;" vertex="1" parent="S_7H6B9EacM-xH_ue1mA-17">
          <mxGeometry y="26" width="240" height="74" as="geometry" />
        </mxCell>
        <mxCell id="S_7H6B9EacM-xH_ue1mA-19" value="" style="line;strokeWidth=1;fillColor=none;align=left;verticalAlign=middle;spacingTop=-1;spacingLeft=3;spacingRight=3;rotatable=0;labelPosition=right;points=[];portConstraint=eastwest;strokeColor=inherit;" vertex="1" parent="S_7H6B9EacM-xH_ue1mA-17">
          <mxGeometry y="100" width="240" height="8" as="geometry" />
        </mxCell>
        <mxCell id="S_7H6B9EacM-xH_ue1mA-20" value="&lt;div&gt;&lt;div&gt;&amp;nbsp;+Casilla()&lt;/div&gt;&lt;div&gt;&amp;nbsp;+boolean isMina(),void setMina(boolean)&lt;/div&gt;&lt;div&gt;&amp;nbsp;+int getConteoMinas(), `vacÃ­o int void&amp;nbsp; +incrementarConteoMinas()&lt;/div&gt;&lt;div&gt;&amp;nbsp;+boolean isDescubierto(),void&amp;nbsp; +setDescubierto(boolean)&lt;/div&gt;&lt;div&gt;&amp;nbsp;+boolean isMarcado(),void&amp;nbsp; +setMarcado(boolean)&lt;/div&gt;&lt;/div&gt;&lt;div&gt;&lt;br&gt;&lt;/div&gt;" style="text;strokeColor=none;fillColor=none;align=left;verticalAlign=top;spacingLeft=4;spacingRight=4;overflow=hidden;rotatable=0;points=[[0,0.5],[1,0.5]];portConstraint=eastwest;whiteSpace=wrap;html=1;" vertex="1" parent="S_7H6B9EacM-xH_ue1mA-17">
          <mxGeometry y="108" width="240" height="132" as="geometry" />
        </mxCell>
        <mxCell id="S_7H6B9EacM-xH_ue1mA-23" value="&lt;font style=&quot;font-size: 24px;&quot;&gt;&lt;b&gt;DIAGRAMA UML BUSCAMINA&lt;/b&gt;&lt;/font&gt;" style="text;html=1;align=center;verticalAlign=middle;resizable=0;points=[];autosize=1;strokeColor=none;fillColor=none;" vertex="1" parent="1">
          <mxGeometry x="600" y="-440" width="370" height="40" as="geometry" />
        </mxCell>
      </root>
    </mxGraphModel>
  </diagram>
</mxfile>
